<?xml version="1.0" encoding="UTF-8" standalone="no"?><!DOCTYPE svg PUBLIC "-//W3C//DTD SVG 1.1//EN" "http://www.w3.org/Graphics/SVG/1.1/DTD/svg11.dtd"><svg width="100%" height="100%" viewBox="0 0 4500 4500" version="1.1" xmlns="http://www.w3.org/2000/svg" xmlns:xlink="http://www.w3.org/1999/xlink" xml:space="preserve" xmlns:serif="http://www.serif.com/" style="fill-rule:evenodd;clip-rule:evenodd;stroke-linejoin:round;stroke-miterlimit:2;"><rect id="Artboard1" x="0" y="0" width="4500" height="4500" style="fill:none;"/><g><path d="M4249.66,4242.04l-3342.35,0c0,-604.569 490.101,-1094.71 1094.71,-1094.71l1152.93,0c604.61,0 1094.71,490.142 1094.71,1094.71Z" style="fill:#e58115;fill-rule:nonzero;"/><path d="M2636.34,3149.77c-479.48,0 -871.851,-372.575 -903.596,-844.048c-1.368,20.399 -2.132,40.96 -2.132,61.721l0,1874.58l1811.46,0l0,-1874.58c0,-20.761 -0.765,-41.322 -2.133,-61.721c-31.745,471.473 -424.116,844.048 -903.595,844.048" style="fill:#ffab2e;fill-rule:nonzero;"/><path d="M2636.34,1461.71c-479.48,0 -871.851,372.575 -903.596,844.048c31.745,471.432 424.116,844.007 903.596,844.007c479.479,0 871.85,-372.575 903.595,-844.007c-31.745,-471.473 -424.116,-844.048 -903.595,-844.048" style="fill:#e58115;fill-rule:nonzero;"/><path d="M3768.33,1151.24l-1016.82,0l867.505,-867.505c55.081,-55.081 149.312,-16.054 149.312,61.841l0,805.664Z" style="fill:#f7941e;fill-rule:nonzero;"/><path d="M1512.29,1151.24l1016.82,0l-867.505,-867.505c-55.082,-55.081 -149.312,-16.054 -149.312,61.841l0,805.664Z" style="fill:#f7941e;fill-rule:nonzero;"/><path d="M3279,2350.76l-1285.35,0c-391.606,0 -709.1,-317.493 -709.1,-709.1c0,-391.646 317.494,-709.1 709.1,-709.1l1285.35,0c391.646,0 709.1,317.454 709.1,709.1c0,391.607 -317.454,709.1 -709.1,709.1" style="fill:#ffab2e;fill-rule:nonzero;"/><path d="M3279,2040.95l-1285.35,0c-338.375,0 -621.227,-237.105 -691.919,-554.196c-11.105,49.891 -17.181,101.674 -17.181,154.904c0,391.607 317.494,709.1 709.1,709.1l1285.35,0c391.646,0 709.1,-317.493 709.1,-709.1c0,-53.23 -6.035,-105.013 -17.181,-154.904c-70.692,317.091 -353.503,554.196 -691.919,554.196" style="fill:#f7941e;fill-rule:nonzero;"/><path d="M2548.37,1461.71c0,191.96 -155.588,347.549 -347.549,347.549c-191.921,0 -347.549,-155.589 -347.549,-347.549c0,-191.961 155.628,-347.549 347.549,-347.549c191.961,0 347.549,155.588 347.549,347.549" style="fill:#fff;fill-rule:nonzero;"/><path d="M2397.43,1461.71c0,108.594 -88.034,196.628 -196.628,196.628c-108.554,0 -196.588,-88.034 -196.588,-196.628c0,-108.594 88.034,-196.628 196.588,-196.628c108.594,0 196.628,88.034 196.628,196.628" style="fill-rule:nonzero;"/><path d="M3422.18,1461.71c0,191.96 -155.589,347.549 -347.549,347.549c-191.921,0 -347.55,-155.589 -347.55,-347.549c0,-191.961 155.629,-347.549 347.55,-347.549c191.96,0 347.549,155.588 347.549,347.549" style="fill:#fff;fill-rule:nonzero;"/><path d="M2754.41,1819.6l-236.179,0c-71.94,0 -130.281,-58.34 -130.281,-130.28c0,-71.981 58.341,-130.281 130.281,-130.281l236.179,0c71.94,0 130.281,58.3 130.281,130.281c0,71.94 -58.341,130.28 -130.281,130.28" style="fill:#ff99b6;fill-rule:nonzero;"/><path d="M2754.41,1762.68l-236.179,0c-62.163,0 -114.106,-43.575 -127.102,-101.835c-2.052,9.174 -3.179,18.71 -3.179,28.487c0,71.94 58.341,130.28 130.281,130.28l236.179,0c71.94,0 130.281,-58.34 130.281,-130.28c0,-9.777 -1.087,-19.313 -3.139,-28.487c-12.996,58.26 -64.979,101.835 -127.142,101.835" style="fill:#dd809f;fill-rule:nonzero;"/><path d="M2779.07,1627.87l-75.481,0c-14.243,0 -25.79,-11.548 -25.79,-25.831c0,-14.243 11.547,-25.791 25.79,-25.791l75.481,0c14.243,0 25.831,11.548 25.831,25.791c0,14.283 -11.588,25.831 -25.831,25.831" style="fill:#dd809f;fill-rule:nonzero;"/><path d="M3271.25,1461.71c0,108.594 -88.033,196.628 -196.628,196.628c-108.553,0 -196.587,-88.034 -196.587,-196.628c0,-108.594 88.034,-196.628 196.587,-196.628c108.595,0 196.628,88.034 196.628,196.628" style="fill-rule:nonzero;"/><path d="M3659.29,1520.81l-249.135,249.134c-7.765,7.766 -20.399,7.766 -28.204,0c-7.806,-7.805 -7.806,-20.439 0,-28.245l249.134,-249.094c7.766,-7.805 20.399,-7.805 28.205,0c7.806,7.765 7.806,20.399 0,28.205" style="fill:#fff;fill-rule:nonzero;"/><path d="M3659.29,1993.18l-249.135,-249.135c-7.765,-7.765 -20.399,-7.765 -28.204,0c-7.806,7.806 -7.806,20.439 0,28.245l249.134,249.094c7.766,7.806 20.399,7.806 28.205,0c7.806,-7.765 7.806,-20.399 0,-28.204" style="fill:#fff;fill-rule:nonzero;"/><path d="M3748.37,1778.12l-352.297,0c-11.024,0 -19.956,-8.932 -19.956,-19.956c0,-11.025 8.932,-19.957 19.956,-19.957l352.297,0c11.024,0 19.957,8.932 19.957,19.957c0,11.024 -8.933,19.956 -19.957,19.956" style="fill:#fff;fill-rule:nonzero;"/><path d="M1641.63,1520.81l249.135,249.134c7.765,7.766 20.399,7.766 28.204,0c7.806,-7.805 7.806,-20.439 0,-28.245l-249.134,-249.094c-7.766,-7.805 -20.399,-7.805 -28.205,0c-7.805,7.765 -7.805,20.399 0,28.205" style="fill:#fff;fill-rule:nonzero;"/><path d="M1641.63,1993.18l249.135,-249.135c7.765,-7.765 20.399,-7.765 28.204,0c7.806,7.806 7.806,20.439 0,28.245l-249.134,249.094c-7.766,7.806 -20.399,7.806 -28.205,0c-7.805,-7.765 -7.805,-20.399 0,-28.204" style="fill:#fff;fill-rule:nonzero;"/><path d="M1552.55,1778.12l352.297,0c11.024,0 19.956,-8.932 19.956,-19.956c0,-11.025 -8.932,-19.957 -19.956,-19.957l-352.297,0c-11.024,0 -19.957,8.932 -19.957,19.957c0,11.024 8.933,19.956 19.957,19.956" style="fill:#fff;fill-rule:nonzero;"/><path d="M1232.23,4020.86l-512.392,0c-258.871,0 -469.501,-210.63 -469.501,-469.501c0,-258.912 210.63,-469.501 469.501,-469.501l268.126,0c13.76,0 24.986,-11.226 24.986,-25.026l0,-253.279c0,-71.739 58.179,-129.919 129.918,-129.919c71.739,0 129.919,58.18 129.919,129.919l0,253.279c0,157.077 -127.786,284.823 -284.823,284.823l-268.126,0c-115.595,0 -209.664,94.069 -209.664,209.704c0,115.595 94.069,209.664 209.664,209.664l512.392,0c71.739,0 129.918,58.18 129.918,129.919c0,71.738 -58.179,129.918 -129.918,129.918" style="fill:#e58115;fill-rule:nonzero;"/><path d="M1142.86,2933.46c-71.739,0 -129.918,-58.179 -129.918,-129.918l0,-235.254c0,-71.738 58.179,-129.878 129.918,-129.878c71.739,0 129.919,58.14 129.919,129.878l0,235.254c0,71.739 -58.18,129.918 -129.919,129.918" style="fill:#ffab2e;fill-rule:nonzero;"/><path d="M3032.28,4242.04l-561.035,0l0,-126.619c0,-154.904 125.613,-280.518 280.517,-280.518c154.945,0 280.518,125.614 280.518,280.518l0,126.619Z" style="fill:#ffc67b;fill-rule:nonzero;"/><path d="M3683.67,4242.04l-561.035,0l0,-126.619c0,-154.904 125.613,-280.518 280.518,-280.518c154.944,0 280.517,125.614 280.517,280.518l0,126.619Z" style="fill:#ffc67b;fill-rule:nonzero;"/><path d="M2081.66,3508.91c-42.77,0 -77.452,-34.682 -77.452,-77.452l0,-225.597c0,-42.77 34.682,-77.412 77.452,-77.412c42.77,0 77.452,34.642 77.452,77.412l0,225.597c0,42.77 -34.682,77.452 -77.452,77.452" style="fill:#e58115;fill-rule:nonzero;"/><path d="M2278.28,4025.16c-42.77,0 -77.452,-34.682 -77.452,-77.452l0,-225.597c0,-42.77 34.682,-77.412 77.452,-77.412c42.77,0 77.452,34.642 77.452,77.412l0,225.597c0,42.77 -34.682,77.452 -77.452,77.452" style="fill:#e58115;fill-rule:nonzero;"/><path d="M3122.64,3537.49c-42.77,0 -77.452,-34.683 -77.452,-77.452l0,-225.597c0,-42.77 34.682,-77.412 77.452,-77.412c42.77,0 77.452,34.642 77.452,77.412l0,225.597c0,42.769 -34.682,77.452 -77.452,77.452" style="fill:#e58115;fill-rule:nonzero;"/><path d="M2636.33,3654.37c-42.77,0 -77.453,-34.682 -77.453,-77.452l0,-225.597c0,-42.77 34.683,-77.412 77.453,-77.412c42.769,0 77.452,34.642 77.452,77.412l0,225.597c0,42.77 -34.683,77.452 -77.452,77.452" style="fill:#e58115;fill-rule:nonzero;"/><path d="M1434.99,1265.11c0,-42.77 34.682,-77.452 77.452,-77.452l225.597,0c42.77,0 77.412,34.682 77.412,77.452c0,42.77 -34.642,77.452 -77.412,77.452l-225.597,0c-42.77,0 -77.452,-34.682 -77.452,-77.452" style="fill:#e58115;fill-rule:nonzero;"/><path d="M3454.7,1265.11c0,-42.77 34.682,-77.452 77.452,-77.452l225.597,0c42.77,0 77.412,34.682 77.412,77.452c0,42.77 -34.642,77.452 -77.412,77.452l-225.597,0c-42.77,0 -77.452,-34.682 -77.452,-77.452" style="fill:#e58115;fill-rule:nonzero;"/></g></svg>